<svg xmlns="http://www.w3.org/2000/svg" viewBox="0 0 48 48" width="48" height="48">
  <!-- Background Circle with Gradient -->
  <defs>
    <linearGradient id="milky-s2-gradient" x1="0%" y1="0%" x2="100%" y2="100%">
      <stop offset="0%" stop-color="#5D5DFF" />
      <stop offset="100%" stop-color="#9D9DFF" />
    </linearGradient>
    <filter id="glow" x="-20%" y="-20%" width="140%" height="140%">
      <feGaussianBlur stdDeviation="2" result="blur" />
      <feComposite in="SourceGraphic" in2="blur" operator="over" />
    </filter>
  </defs>
  
  <!-- Main Circle -->
  <circle cx="24" cy="24" r="22" fill="url(#milky-s2-gradient)" opacity="0.2" />
  
  <!-- Stylized S with 2 -->
  <g filter="url(#glow)">
    <!-- Stylized S -->
    <path d="M14,16 C14,14 16,12 20,12 C24,12 26,14 26,16 C26,18 24,20 20,20 C16,20 14,22 14,24 C14,26 16,28 20,28 C24,28 26,26 26,24" 
          stroke="url(#milky-s2-gradient)" stroke-width="3" fill="none" stroke-linecap="round" />
    
    <!-- Number 2 -->
    <path d="M30,16 C30,14 32,12 36,12 C40,12 42,14 42,16 C42,20 30,24 30,28 L42,28" 
          stroke="#FFFFFF" stroke-width="2" fill="none" stroke-linecap="round" />
  </g>
</svg>