<svg xmlns="http://www.w3.org/2000/svg" width="48" height="48" viewBox="0 0 48 48">
  <!-- Background Circle with Gradient -->
  <defs>
    <linearGradient id="milky-fast-gradient" x1="0%" y1="0%" x2="100%" y2="100%">
      <stop offset="0%" stop-color="#11998e" />
      <stop offset="100%" stop-color="#38ef7d" />
    </linearGradient>
    <filter id="glow" x="-20%" y="-20%" width="140%" height="140%">
      <feGaussianBlur stdDeviation="2" result="blur" />
      <feComposite in="SourceGraphic" in2="blur" operator="over" />
    </filter>
  </defs>
  
  <!-- Main Circle -->
  <circle cx="24" cy="24" r="22" fill="url(#milky-fast-gradient)" opacity="0.2" />
  
  <!-- Stylized M -->
  <g filter="url(#glow)">
    <path d="M10,14 L10,34 L14,34 L14,20 L18,28 L22,20 L22,34 L26,34 L26,14 L21,14 L18,22 L15,14 Z" fill="url(#milky-fast-gradient)" />
    
    <!-- Speed Lines -->
    <path d="M30,14 L38,14" stroke="url(#milky-fast-gradient)" stroke-width="2" fill="none" />
    <path d="M28,20 L40,20" stroke="url(#milky-fast-gradient)" stroke-width="2" fill="none" />
    <path d="M30,26 L38,26" stroke="url(#milky-fast-gradient)" stroke-width="2" fill="none" />
    <path d="M32,32 L36,32" stroke="url(#milky-fast-gradient)" stroke-width="2" fill="none" />
    
    <!-- Lightning Bolt for Fast -->
    <path d="M34,14 L30,24 L34,24 L30,34" stroke="url(#milky-fast-gradient)" stroke-width="1.5" fill="none" />
  </g>
</svg>