<svg xmlns="http://www.w3.org/2000/svg" width="48" height="48" viewBox="0 0 48 48">
  <!-- Background Circle with Gradient -->
  <defs>
    <linearGradient id="milkycoder-pro-gradient" x1="0%" y1="0%" x2="100%" y2="100%">
      <stop offset="0%" stop-color="#FF416C" />
      <stop offset="100%" stop-color="#FF4B2B" />
    </linearGradient>
    <filter id="glow" x="-20%" y="-20%" width="140%" height="140%">
      <feGaussianBlur stdDeviation="2" result="blur" />
      <feComposite in="SourceGraphic" in2="blur" operator="over" />
    </filter>
  </defs>
  
  <!-- Main Circle -->
  <circle cx="24" cy="24" r="22" fill="url(#milkycoder-pro-gradient)" opacity="0.2" />
  
  <!-- Stylized MC -->
  <g filter="url(#glow)">
    <!-- M -->
    <path d="M8,14 L8,34 L12,34 L12,20 L16,28 L20,20 L20,34 L24,34 L24,14 L19,14 L16,22 L13,14 Z" fill="url(#milkycoder-pro-gradient)" />
    
    <!-- C -->
    <path d="M40,18 C40,16 39,14 36,14 C33,14 32,16 32,24 C32,32 33,34 36,34 C39,34 40,32 40,30" stroke="url(#milkycoder-pro-gradient)" stroke-width="2" fill="none" />
    
    <!-- Code Brackets -->
    <path d="M28,18 L32,24 L28,30" stroke="url(#milkycoder-pro-gradient)" stroke-width="1.5" fill="none" />
  </g>
</svg>