<svg xmlns="http://www.w3.org/2000/svg" viewBox="0 0 48 48" width="48" height="48">
  <!-- Background Circle with Gradient -->
  <defs>
    <linearGradient id="milky-70b-gradient" x1="0%" y1="0%" x2="100%" y2="100%">
      <stop offset="0%" stop-color="#7A4AFF" />
      <stop offset="100%" stop-color="#B09DFF" />
    </linearGradient>
    <filter id="glow" x="-20%" y="-20%" width="140%" height="140%">
      <feGaussianBlur stdDeviation="2" result="blur" />
      <feComposite in="SourceGraphic" in2="blur" operator="over" />
    </filter>
  </defs>
  
  <!-- Main Circle -->
  <circle cx="24" cy="24" r="22" fill="url(#milky-70b-gradient)" opacity="0.2" />
  
  <!-- Stylized 70B -->
  <g filter="url(#glow)">
    <!-- Number 7 -->
    <path d="M12,12 L20,12 L14,28" 
          stroke="url(#milky-70b-gradient)" stroke-width="3" fill="none" stroke-linecap="round" />
    
    <!-- Number 0 -->
    <path d="M24,12 C20,12 18,16 18,20 C18,24 20,28 24,28 C28,28 30,24 30,20 C30,16 28,12 24,12 Z" 
          stroke="url(#milky-70b-gradient)" stroke-width="2" fill="none" stroke-linecap="round" />
    
    <!-- Letter B -->
    <path d="M34,12 L34,28 M34,12 C38,12 40,14 40,16 C40,18 38,20 34,20 M34,20 C38,20 40,22 40,24 C40,26 38,28 34,28" 
          stroke="#FFFFFF" stroke-width="2" fill="none" stroke-linecap="round" />
  </g>
</svg>