<svg xmlns="http://www.w3.org/2000/svg" width="48" height="48" viewBox="0 0 48 48">
  <!-- Background Circle with Gradient -->
  <defs>
    <linearGradient id="sonnet-seek-gradient" x1="0%" y1="0%" x2="100%" y2="100%">
      <stop offset="0%" stop-color="#F857A6" />
      <stop offset="100%" stop-color="#FF5858" />
    </linearGradient>
    <filter id="glow" x="-20%" y="-20%" width="140%" height="140%">
      <feGaussianBlur stdDeviation="2" result="blur" />
      <feComposite in="SourceGraphic" in2="blur" operator="over" />
    </filter>
  </defs>
  
  <!-- Main Circle -->
  <circle cx="24" cy="24" r="22" fill="url(#sonnet-seek-gradient)" opacity="0.2" />
  
  <!-- Stylized S -->
  <g filter="url(#glow)">
    <path d="M16,18 C16,16 17,14 20,14 C23,14 24,16 24,18 C24,20 23,21 20,22 C17,23 16,24 16,26 C16,28 17,30 20,30 C23,30 24,28 24,26" stroke="url(#sonnet-seek-gradient)" stroke-width="2.5" fill="none" />
    
    <!-- Musical Note for Sonnet -->
    <path d="M32,14 C32,14 32,26 32,26 C32,28 30,30 28,30 C26,30 24,28 24,26 C24,24 26,22 28,22 C29,22 30,22.5 31,23 C31,23 31,14 31,14" stroke="url(#sonnet-seek-gradient)" stroke-width="1.5" fill="none" />
    <circle cx="28" cy="26" r="2" fill="url(#sonnet-seek-gradient)" />
    
    <!-- Seek Element -->
    <path d="M36,24 A8,8 0 0 1 44,24 A8,8 0 0 1 36,24" stroke="url(#sonnet-seek-gradient)" stroke-width="1.5" fill="none" />
    <circle cx="40" cy="24" r="2" fill="url(#sonnet-seek-gradient)" />
  </g>
</svg>